<svg version="1.1" id="Layer_1" xmlns="http://www.w3.org/2000/svg" xmlns:xlink="http://www.w3.org/1999/xlink" x="0px" y="0px"
	 height="60px" width="70px" viewBox="0 0 200 155" enable-background="new 0 0 200 155" xml:space="preserve">
<path fill="#FEFEFE" opacity="1.000000" stroke="none" 
	d="
M83.000000,156.000000 
	C55.740219,156.000000 28.480440,156.000000 1.000000,156.000000 
	C1.000000,129.312851 1.000000,102.625084 1.297179,75.660294 
	C2.298249,77.639496 3.002138,79.895706 3.773001,82.520615 
	C5.507127,86.304878 7.174280,89.720451 8.852952,93.119911 
	C8.864470,93.103798 8.876945,93.091881 8.900948,93.380386 
	C9.226205,94.139549 9.527459,94.610214 9.910736,95.410568 
	C11.218583,97.200699 12.444406,98.661133 13.786489,100.447487 
	C17.916424,104.572510 21.930098,108.371620 26.142754,112.431427 
	C27.159632,112.868958 27.977526,113.045792 28.799191,113.253265 
	C28.802958,113.283905 28.821785,113.342705 28.832947,113.667595 
	C30.849051,115.402443 32.853992,116.812393 35.068718,118.493011 
	C40.808537,121.271797 46.338566,123.779915 52.172718,126.468277 
	C62.635925,129.098251 72.795013,131.548004 83.054749,134.302460 
	C83.216797,135.030228 83.278191,135.453323 83.189865,136.331192 
	C83.026764,143.190659 83.013382,149.595322 83.000000,156.000000 
z"/>
<path fill="#B8B9BD" opacity="1.000000" stroke="none" 
	d="
M3.706028,82.151924 
	C3.002138,79.895706 2.298249,77.639496 1.297179,75.191635 
	C1.000000,71.307091 1.000000,67.614182 1.381949,63.461533 
	C3.486619,64.286880 5.629211,65.266083 6.838114,66.925491 
	C8.883290,69.732819 10.955709,69.489258 12.250422,66.991570 
	C15.233350,61.237038 20.928450,59.235600 25.818594,55.994598 
	C30.544117,52.862694 37.826885,53.199360 39.655151,45.962299 
	C39.843124,45.218220 41.069473,44.514626 41.957390,44.209442 
	C45.020618,43.156586 48.147404,42.288624 51.265995,41.345406 
	C53.362175,36.294823 56.681072,32.859970 62.557968,31.757977 
	C65.328880,31.238398 69.571953,30.812599 68.473625,25.664505 
	C68.339783,25.037125 70.080063,23.581305 71.191032,23.191824 
	C75.777725,21.583832 80.467644,20.272617 85.090225,18.762321 
	C85.829460,18.520796 86.775444,17.954567 87.018379,17.309624 
	C88.410812,13.613056 90.037109,10.363107 94.772171,10.344962 
	C95.163193,10.343463 95.758072,9.073424 95.899124,8.325101 
	C96.356171,5.900381 96.645859,3.444115 97.000000,1.000000 
	C100.361290,1.000000 103.722572,1.000000 107.778259,1.320302 
	C113.001328,2.327980 117.530006,3.015356 122.170921,4.069151 
	C123.370049,4.916570 124.456932,5.397570 125.760048,5.741950 
	C126.307671,5.633770 126.639069,5.662210 126.942307,6.074924 
	C123.837975,7.972897 120.776550,9.517613 117.680084,10.988598 
	C115.836891,11.864211 113.819527,12.428019 112.091309,13.478784 
	C109.026115,15.342426 106.121422,17.470032 103.149567,19.487194 
	C101.108246,21.872463 98.803642,23.950674 96.499878,26.029827 
	C95.006256,27.377817 93.513878,28.727177 91.737686,30.326714 
	C73.756737,33.886333 58.229965,41.204449 45.854687,55.048019 
	C44.099384,56.473618 42.758755,57.937008 41.354652,59.336723 
	C40.416550,60.271900 39.486542,61.271194 38.382286,61.973537 
	C34.587715,64.387001 28.568619,63.645626 27.398447,69.803383 
	C27.327723,70.175552 26.714558,70.500198 26.293457,70.741806 
	C20.765770,73.913300 15.227209,77.065834 9.315485,80.437515 
	C8.845057,80.014687 7.919042,79.182373 6.915215,78.280121 
	C5.751604,79.683990 4.728816,80.917953 3.706028,82.151924 
M89.628014,27.474947 
	C89.840370,27.529512 90.052727,27.584080 90.265083,27.638647 
	C90.128609,27.504564 89.992142,27.370481 89.628014,27.474947 
M121.411560,6.483115 
	C121.411560,6.483115 121.523651,6.416320 121.411560,6.483115 
z"/>
<path fill="#FDFDFD" opacity="1.000000" stroke="none" 
	d="
M122.058685,3.702731 
	C117.530006,3.015356 113.001328,2.327980 108.236328,1.320302 
	C138.912262,1.000000 169.824524,1.000000 201.000000,1.000000 
	C201.000000,21.353472 201.000000,41.708076 200.680695,62.338425 
	C199.254456,59.067970 198.147537,55.521770 197.007919,51.631023 
	C196.130203,49.781754 195.285187,48.277031 194.389145,46.453178 
	C193.931076,45.407196 193.524033,44.680347 193.046875,43.613823 
	C191.025818,41.046982 189.074860,38.819824 187.134338,36.250290 
	C184.224197,33.061085 181.303619,30.214252 178.254395,27.080950 
	C174.439285,24.188011 170.752838,21.581543 166.900085,18.715107 
	C165.808701,18.013834 164.883636,17.572531 163.742188,17.019571 
	C163.525818,16.907915 163.052505,16.793457 162.825806,16.541637 
	C159.398453,14.867183 156.197784,13.444547 152.761993,11.759204 
	C150.514175,10.895153 148.501465,10.293809 146.245941,9.474585 
	C145.005386,8.913632 144.007629,8.570560 142.643219,8.091646 
	C137.174515,7.200754 132.072495,6.445701 126.970467,5.690649 
	C126.639069,5.662210 126.307671,5.633770 125.621384,5.389169 
	C124.197220,4.682916 123.127953,4.192823 122.058685,3.702731 
z"/>
<path fill="#FEFEFE" opacity="1.000000" stroke="none" 
	d="
M1.000000,61.000000 
	C1.000000,41.060524 1.000000,21.121048 1.000000,1.000000 
	C29.020634,1.000000 57.041656,1.000000 85.501511,1.396217 
	C84.464424,2.205383 83.001099,2.672156 81.510155,3.020818 
	C77.611710,3.932485 73.701195,4.792516 69.388885,5.733027 
	C67.183868,6.081814 65.345383,6.219335 63.593304,6.683203 
	C47.467728,10.952487 32.768108,18.113190 20.354809,29.331184 
	C11.208097,37.597141 4.401829,47.502659 2.045333,60.222931 
	C1.597227,60.629475 1.298614,60.814739 1.000000,61.000000 
z"/>
<path fill="#BBBCC1" opacity="1.000000" stroke="none" 
	d="
M69.795486,5.673134 
	C73.701195,4.792516 77.611710,3.932485 81.510155,3.020818 
	C83.001099,2.672156 84.464424,2.205383 85.970169,1.396217 
	C86.444443,1.000000 86.888893,1.000000 87.821030,1.311876 
	C89.539146,1.415835 90.769569,1.207917 92.000000,1.000000 
	C93.388893,1.000000 94.777779,1.000000 96.583336,1.000000 
	C96.645859,3.444115 96.356171,5.900381 95.899124,8.325101 
	C95.758072,9.073424 95.163193,10.343463 94.772171,10.344962 
	C90.037109,10.363107 88.410812,13.613056 87.018379,17.309624 
	C86.775444,17.954567 85.829460,18.520796 85.090225,18.762321 
	C80.467644,20.272617 75.777725,21.583832 71.191032,23.191824 
	C70.080063,23.581305 68.339783,25.037125 68.473625,25.664505 
	C69.571953,30.812599 65.328880,31.238398 62.557968,31.757977 
	C56.681072,32.859970 53.362175,36.294823 51.265995,41.345406 
	C48.147404,42.288624 45.020618,43.156586 41.957390,44.209442 
	C41.069473,44.514626 39.843124,45.218220 39.655151,45.962299 
	C37.826885,53.199360 30.544117,52.862694 25.818594,55.994598 
	C20.928450,59.235600 15.233350,61.237038 12.250422,66.991570 
	C10.955709,69.489258 8.883290,69.732819 6.838114,66.925491 
	C5.629211,65.266083 3.486619,64.286880 1.381949,63.000896 
	C1.000000,62.555553 1.000000,62.111111 1.000000,61.333332 
	C1.298614,60.814739 1.597227,60.629475 2.375721,60.143177 
	C3.554741,58.658249 4.253879,57.474354 4.947600,56.299629 
	C8.976910,57.432693 12.232574,57.783298 12.148119,52.133324 
	C12.132419,51.082935 13.768382,50.028980 14.595724,48.941406 
	C19.676910,42.261982 28.922834,43.262589 35.078159,37.723087 
	C37.568195,35.482170 40.883915,33.836143 42.994732,30.687662 
	C44.054768,29.106520 45.884464,28.004696 47.464672,26.817293 
	C50.041729,24.880831 52.589657,22.865240 55.357410,21.235485 
	C57.639969,19.891432 60.136189,18.648891 62.695751,18.104868 
	C65.681786,17.470205 71.243057,9.609455 70.335663,6.501320 
	C70.247261,6.198500 69.979820,5.947948 69.795486,5.673134 
z"/>
<path fill="#FBFCFC" opacity="1.000000" stroke="none" 
	d="
M201.000000,75.000000 
	C201.000000,102.000008 201.000000,129.000015 201.000000,156.000000 
	C198.630325,156.000000 196.309906,156.000000 193.506561,155.648056 
	C192.358749,154.199783 191.693832,153.103439 190.726196,151.835983 
	C185.633255,143.432220 180.843018,135.199570 175.974609,126.626144 
	C174.099289,123.157669 172.302139,120.029999 170.719360,116.621956 
	C177.229172,111.509163 183.723404,106.864906 187.402802,99.106979 
	C193.677185,94.992516 195.939743,88.903534 197.283432,82.214371 
	C197.266876,82.133781 197.103333,82.151939 197.426208,82.169724 
	C197.957382,81.817375 198.165680,81.447243 198.581375,80.805664 
	C199.525848,78.689484 200.262924,76.844742 201.000000,75.000000 
z"/>
<path fill="#FBFCFC" opacity="1.000000" stroke="none" 
	d="
M154.000000,156.000000 
	C141.979111,156.000000 129.958206,156.000000 117.580147,155.721390 
	C117.083641,154.632584 116.944313,153.822403 116.934769,152.558273 
	C117.106003,146.165771 117.147446,140.227203 117.607391,134.224426 
	C125.681763,133.113144 133.337631,132.066086 141.137375,131.336426 
	C144.104599,136.132309 146.927963,140.610840 149.779526,145.407684 
	C150.335388,146.583588 150.863052,147.441193 151.402374,148.330765 
	C151.414001,148.362747 151.403885,148.430069 151.469025,148.790558 
	C152.356110,151.434036 153.178055,153.717026 154.000000,156.000000 
z"/>
<path fill="#1B5FAD" opacity="1.000000" stroke="none" 
	d="
M154.333313,156.000000 
	C153.178055,153.717026 152.356110,151.434036 151.816574,148.563171 
	C154.056625,146.268890 157.439163,144.745758 157.686951,142.819397 
	C158.273666,138.258057 160.193649,136.634003 164.453918,136.996735 
	C167.520416,137.257843 169.216171,136.090942 169.013367,132.758606 
	C168.834381,129.817719 169.637146,127.886795 173.273911,128.499512 
	C174.090942,128.637161 175.120865,127.511192 176.052780,126.966942 
	C180.843018,135.199570 185.633255,143.432220 190.724258,152.090393 
	C190.987183,152.681351 190.949310,152.846786 190.537445,153.048187 
	C188.440720,153.381561 186.717972,153.678970 184.697235,153.684937 
	C175.874512,153.265167 167.348633,153.041428 158.826599,153.141769 
	C157.873306,153.153015 156.941681,155.002823 156.000000,156.000000 
	C155.555557,156.000000 155.111099,156.000000 154.333313,156.000000 
z"/>
<path fill="#9B9AA0" opacity="1.000000" stroke="none" 
	d="
M193.116974,43.953499 
	C193.524033,44.680347 193.931076,45.407196 194.050018,46.610870 
	C191.831696,50.264038 191.220673,53.243248 194.956085,56.057045 
	C195.794052,54.416325 196.417328,53.195950 197.040619,51.975571 
	C198.147537,55.521770 199.254456,59.067970 200.680695,62.807083 
	C201.000000,64.714355 201.000000,66.428719 200.631821,68.566757 
	C198.771225,68.467094 197.278824,67.943748 195.787628,67.425812 
	C195.015518,68.558731 194.242203,69.686241 193.492432,70.779434 
	C191.586136,68.672081 189.928986,66.840134 188.128693,64.634628 
	C187.414352,62.214493 186.843170,60.167912 186.691254,58.099621 
	C188.243866,56.496941 189.377243,54.915974 190.449951,53.419621 
	C187.791046,51.914673 186.146942,50.984104 184.502838,50.053535 
	C184.642380,49.743938 184.781921,49.434345 184.921463,49.124748 
	C186.093292,49.275684 187.265121,49.426620 188.869873,49.633316 
	C188.284286,47.687763 187.799728,46.174564 187.442413,44.631893 
	C187.422592,44.546303 188.456940,44.216560 189.038757,44.299011 
	C189.482727,44.918190 189.888550,45.238815 190.294373,45.559441 
	C190.522598,45.041618 190.750824,44.523792 191.335297,44.001240 
	C192.166672,43.982174 192.641830,43.967838 193.116974,43.953499 
z"/>
<path fill="#97969C" opacity="1.000000" stroke="none" 
	d="
M188.271835,65.008194 
	C189.928986,66.840134 191.586136,68.672081 193.492432,70.779434 
	C194.242203,69.686241 195.015518,68.558731 195.787628,67.425812 
	C197.278824,67.943748 198.771225,68.467094 200.631821,68.995224 
	C201.000000,70.714355 201.000000,72.428719 201.000000,74.571533 
	C200.262924,76.844742 199.525848,78.689484 198.288757,80.877434 
	C197.560287,81.531075 197.331818,81.841507 197.103333,82.151947 
	C197.103333,82.151939 197.266876,82.133781 196.933289,82.147125 
	C194.062790,84.784637 191.525848,87.408798 188.719452,90.311691 
	C188.329407,90.117859 187.218521,89.565819 186.114883,88.626419 
	C186.838699,80.495430 187.555267,72.751808 188.271835,65.008194 
z"/>
<path fill="#AAD0D5" opacity="1.000000" stroke="none" 
	d="
M190.911453,153.012238 
	C190.949310,152.846786 190.987183,152.681351 191.026978,152.261505 
	C191.693832,153.103439 192.358749,154.199783 193.011841,155.648056 
	C181.979111,156.000000 170.958206,156.000000 159.536957,155.726868 
	C159.446899,155.249924 159.757202,155.046143 160.528168,154.899689 
	C170.306473,154.974670 179.624283,155.022339 188.941483,154.966293 
	C189.940994,154.960297 192.669647,156.059097 190.911453,153.012238 
z"/>
<path fill="#1266B6" opacity="1.000000" stroke="none" 
	d="
M160.067490,154.842346 
	C159.757202,155.046143 159.446899,155.249924 159.068298,155.726868 
	C158.250000,156.000000 157.500000,156.000000 156.375000,156.000000 
	C156.941681,155.002823 157.873306,153.153015 158.826599,153.141769 
	C167.348633,153.041428 175.874512,153.265167 184.229156,153.692108 
	C182.245697,153.992523 180.429810,153.933212 178.619400,154.007278 
	C172.434387,154.260345 166.251312,154.560287 160.067490,154.842346 
z"/>
<path fill="#8BA5D2" opacity="1.000000" stroke="none" 
	d="
M83.428467,156.000000 
	C83.013382,149.595322 83.026764,143.190659 83.361771,136.482880 
	C83.819847,136.454010 83.949211,136.731537 84.031509,137.477570 
	C83.982880,141.907639 84.242119,145.896347 83.891365,149.830688 
	C83.529488,153.889755 85.344650,155.215485 88.972534,155.278625 
	C88.947952,155.519196 89.000000,156.000000 89.000000,156.000000 
	C87.285645,156.000000 85.571281,156.000000 83.428467,156.000000 
z"/>
<path fill="#AFD7D4" opacity="1.000000" stroke="none" 
	d="
M89.468636,156.000000 
	C89.000000,156.000000 88.947952,155.519196 89.441925,155.262390 
	C97.640358,154.951950 105.344810,154.898346 113.006317,154.914673 
	C112.963364,154.984604 112.954346,155.148483 112.972687,155.360992 
	C112.991020,155.573502 113.000000,156.000000 113.000000,156.000000 
	C105.312424,156.000000 97.624847,156.000000 89.468636,156.000000 
z"/>
<path fill="#97CAED" opacity="1.000000" stroke="none" 
	d="
M113.399994,156.000000 
	C113.000000,156.000000 112.991020,155.573502 113.317062,155.295197 
	C114.697067,154.348679 115.751022,153.680450 116.804977,153.012207 
	C116.944313,153.822403 117.083641,154.632584 117.111488,155.721390 
	C115.933327,156.000000 114.866661,156.000000 113.399994,156.000000 
z"/>
<path fill="#FEFEFE" opacity="1.000000" stroke="none" 
	d="
M91.600006,1.000000 
	C90.769569,1.207917 89.539146,1.415835 88.154358,1.311876 
	C89.066673,1.000000 90.133339,1.000000 91.600006,1.000000 
z"/>
<path fill="#2166B8" opacity="1.000000" stroke="none" 
	d="
M116.934769,152.558289 
	C115.751022,153.680450 114.697067,154.348679 113.298721,155.082703 
	C112.954346,155.148483 112.963364,154.984604 112.884796,154.534363 
	C111.292053,153.723648 109.784065,153.086304 108.262566,153.052200 
	C102.652672,152.926483 97.026764,153.197052 91.433235,152.869156 
	C89.925400,152.780746 87.632019,151.379120 87.231026,150.100067 
	C86.317169,147.185150 86.497742,143.945908 85.935364,140.893402 
	C85.684456,139.531479 84.714890,138.301956 84.071487,137.012344 
	C83.949211,136.731537 83.819847,136.454010 83.511490,136.028107 
	C83.278191,135.453323 83.216797,135.030228 83.113922,133.839417 
	C83.057861,126.786377 83.043274,120.501091 83.082504,114.147858 
	C83.136314,114.079926 83.303635,114.113663 83.519333,114.098946 
	C83.735023,114.084229 84.159134,113.998657 84.368820,113.998276 
	C84.578499,113.997887 84.997864,113.996948 84.999794,114.463860 
	C85.001724,119.408958 85.001724,123.887138 85.001724,128.365326 
	C85.665703,128.368912 86.329674,128.372498 86.993652,128.376068 
	C86.993652,123.249283 86.993652,118.122482 86.996826,112.997696 
	C87.000000,112.999695 86.995026,112.999695 87.246010,112.999504 
	C87.664314,112.999069 87.831642,112.998825 88.248383,112.998199 
	C88.497803,112.997826 88.996643,112.997559 89.449936,112.998337 
	C94.443329,112.610245 98.983444,112.221359 103.989487,111.792564 
	C103.214142,105.701759 106.637787,103.760109 111.431259,103.607582 
	C112.665977,97.149536 113.832817,91.046516 115.265465,84.854385 
	C116.371887,85.500961 117.212509,86.236633 118.517975,86.993073 
	C124.637001,87.015182 130.294754,87.145714 135.944580,86.989311 
	C145.826462,86.715775 150.209335,80.281662 146.353271,71.943451 
	C146.082596,71.358147 145.963440,70.702759 146.136932,70.016159 
	C150.667404,66.133705 143.919800,67.814919 144.285522,66.490929 
	C145.288849,62.034206 144.567566,57.305679 150.666611,56.958328 
	C158.939987,56.487148 158.973465,56.291553 159.331116,48.001038 
	C160.108704,47.999435 160.553009,47.998531 161.337723,47.995808 
	C162.452393,47.397346 163.226685,46.800705 164.349075,46.228554 
	C177.406235,51.697929 183.202469,61.613258 182.512726,75.296799 
	C181.950867,86.443375 176.982330,94.643867 167.418060,100.671051 
	C162.572250,102.283615 158.084610,103.785271 153.191742,105.251785 
	C152.185730,106.366821 151.627548,107.541862 150.973282,108.660736 
	C150.184418,110.009766 149.467590,112.313568 148.453735,112.468887 
	C142.309998,113.410133 143.164566,118.502693 143.411896,121.988602 
	C143.666245,125.573746 142.534134,126.018829 139.779510,125.840485 
	C139.761703,125.709862 139.879425,125.473953 139.887817,125.081909 
	C139.434235,124.152817 138.972275,123.615776 138.226608,123.027908 
	C137.624207,122.329163 137.305511,121.681252 136.988647,120.595123 
	C136.638535,116.959740 136.286591,113.762581 135.934662,110.565414 
	C135.487595,110.869797 135.040543,111.174179 134.593491,111.478561 
	C133.298080,110.783463 131.323181,110.398903 130.836594,109.334175 
	C129.460327,106.322670 127.269821,105.689156 124.387527,106.002907 
	C120.674286,106.407127 116.960724,106.808487 112.409317,107.301926 
	C113.317360,109.962975 114.202095,112.555710 115.071442,115.103363 
	C114.706039,115.316254 113.945038,115.759628 113.184036,116.203018 
	C114.386284,117.102783 115.588516,118.002548 116.854340,119.251892 
	C116.900383,120.073906 116.882843,120.546349 116.471458,121.032425 
	C112.708473,123.868805 113.087753,127.550949 116.943810,129.427277 
	C117.057533,131.340012 117.123215,132.814316 117.188889,134.288635 
	C117.147446,140.227203 117.106003,146.165771 116.934769,152.558289 
M149.628082,65.474930 
	C149.840225,65.529427 150.052353,65.583916 150.264496,65.638412 
	C150.128159,65.504395 149.991806,65.370384 149.628082,65.474930 
z"/>
<path fill="#A5A5AA" opacity="1.000000" stroke="none" 
	d="
M51.868599,126.288033 
	C46.338566,123.779915 40.808537,121.271797 35.258194,118.195908 
	C36.471138,116.582039 37.704391,115.535950 38.624813,114.755211 
	C38.129078,113.529892 37.066708,112.183929 37.362240,111.283806 
	C37.673927,110.334496 39.263317,109.233498 40.326283,109.199753 
	C45.244503,109.043602 47.167572,105.144226 49.851673,102.137161 
	C50.842964,101.026581 51.967957,100.035355 53.330284,99.138489 
	C57.444141,102.110985 61.259686,104.934692 65.076576,108.108421 
	C65.604164,109.175819 66.130402,109.893196 66.656639,110.610573 
	C67.102226,110.089005 67.547806,109.567436 68.297989,109.059860 
	C69.433678,109.595825 70.264771,110.117790 70.973495,110.980385 
	C67.919464,115.956009 65.166039,120.608200 58.403645,120.191452 
	C56.944649,120.101540 55.248207,122.095978 53.855869,123.347031 
	C53.001980,124.114273 52.518448,125.293701 51.868599,126.288033 
M38.625847,117.475227 
	C38.838825,117.529823 39.051807,117.584419 39.264786,117.639023 
	C39.127941,117.504807 38.991096,117.370590 38.625847,117.475227 
M50.481598,124.589394 
	C50.481598,124.589394 50.411865,124.475266 50.481598,124.589394 
z"/>
<path fill="#B4B5BA" opacity="1.000000" stroke="none" 
	d="
M3.773001,82.520615 
	C4.728816,80.917953 5.751604,79.683990 6.915215,78.280121 
	C7.919042,79.182373 8.845057,80.014687 9.315485,80.437515 
	C15.227209,77.065834 20.765770,73.913300 26.293457,70.741806 
	C26.714558,70.500198 27.327723,70.175552 27.398447,69.803383 
	C28.568619,63.645626 34.587715,64.387001 38.382286,61.973537 
	C39.486542,61.271194 40.416550,60.271900 41.354652,59.336723 
	C42.758755,57.937008 44.099384,56.473618 45.747711,55.395874 
	C42.848129,62.507935 38.157543,68.828560 39.527557,77.002785 
	C33.976902,78.938522 29.132811,81.778595 23.465111,82.123192 
	C23.210447,82.138672 23.013622,82.608315 22.732513,82.760521 
	C18.461424,85.073143 16.291658,90.865585 10.204857,90.328117 
	C9.835907,90.295540 9.299777,92.156265 8.841434,93.136024 
	C7.174280,89.720451 5.507127,86.304878 3.773001,82.520615 
M36.178585,72.030861 
	C36.273445,72.436005 36.368309,72.841148 36.463173,73.246292 
	C36.583549,73.157494 36.815643,73.053314 36.805885,72.982422 
	C36.749287,72.571152 36.635754,72.167702 36.178585,72.030861 
z"/>
<path fill="#9F9FA5" opacity="1.000000" stroke="none" 
	d="
M52.172718,126.468277 
	C52.518448,125.293701 53.001980,124.114273 53.855869,123.347031 
	C55.248207,122.095978 56.944649,120.101540 58.403645,120.191452 
	C65.166039,120.608200 67.919464,115.956009 71.320656,111.131287 
	C75.536346,112.032967 79.282516,113.124382 83.028687,114.215797 
	C83.043274,120.501091 83.057861,126.786377 83.013275,133.534714 
	C72.795013,131.548004 62.635925,129.098251 52.172718,126.468277 
z"/>
<path fill="#ADADB2" opacity="1.000000" stroke="none" 
	d="
M25.943771,112.170731 
	C21.930098,108.371620 17.916424,104.572510 14.139839,100.426643 
	C16.000196,98.879288 17.471729,97.334442 19.274035,96.540039 
	C25.724623,93.696823 32.287304,91.107918 38.606422,88.505669 
	C39.050232,84.725525 39.444401,81.368195 40.027328,78.343094 
	C41.170650,81.448029 42.125217,84.220734 42.784031,87.241615 
	C42.329189,88.124176 41.971104,88.783463 42.046818,89.388458 
	C42.317757,91.553406 43.409657,93.856873 42.952671,95.819618 
	C42.097076,99.494408 39.026073,101.020393 35.436096,102.094017 
	C32.926758,102.844460 30.742262,104.786034 28.603132,106.441673 
	C28.454975,106.556328 30.355635,108.685768 30.455286,109.945366 
	C30.540934,111.027962 29.413059,112.206558 28.821787,113.342705 
	C28.821785,113.342705 28.802958,113.283905 28.841463,112.896637 
	C28.322823,111.803268 27.765678,111.097168 27.208534,110.391075 
	C26.786945,110.984291 26.365360,111.577507 25.943771,112.170731 
z"/>
<path fill="#B0B1B6" opacity="1.000000" stroke="none" 
	d="
M39.838570,78.010857 
	C39.444401,81.368195 39.050232,84.725525 38.606422,88.505669 
	C32.287304,91.107918 25.724623,93.696823 19.274035,96.540039 
	C17.471729,97.334442 16.000196,98.879288 14.023579,100.100731 
	C12.444406,98.661133 11.218583,97.200699 10.169500,95.242165 
	C9.856473,94.193336 9.366708,93.642609 8.876944,93.091881 
	C8.876945,93.091881 8.864470,93.103798 8.852953,93.119911 
	C9.299777,92.156265 9.835907,90.295540 10.204857,90.328117 
	C16.291658,90.865585 18.461424,85.073143 22.732513,82.760521 
	C23.013622,82.608315 23.210447,82.138672 23.465111,82.123192 
	C29.132811,81.778595 33.976902,78.938522 39.527069,77.256927 
	C39.904202,77.678398 39.871387,77.844627 39.838570,78.010857 
M35.392796,80.201797 
	C35.786564,80.206024 36.180336,80.210243 36.574104,80.214462 
	C36.575623,80.050995 36.588123,79.745468 36.577076,79.744606 
	C36.185268,79.714333 35.791256,79.712616 35.392796,80.201797 
z"/>
<path fill="#A9AAAF" opacity="1.000000" stroke="none" 
	d="
M28.832949,113.667595 
	C29.413059,112.206558 30.540934,111.027962 30.455286,109.945366 
	C30.355635,108.685768 28.454975,106.556328 28.603132,106.441673 
	C30.742262,104.786034 32.926758,102.844460 35.436096,102.094017 
	C39.026073,101.020393 42.097076,99.494408 42.952671,95.819618 
	C43.409657,93.856873 42.317757,91.553406 42.046818,89.388458 
	C41.971104,88.783463 42.329189,88.124176 42.954060,87.552582 
	C46.623882,91.406815 49.827927,95.198257 53.031967,98.989693 
	C51.967957,100.035355 50.842964,101.026581 49.851673,102.137161 
	C47.167572,105.144226 45.244503,109.043602 40.326283,109.199753 
	C39.263317,109.233498 37.673927,110.334496 37.362240,111.283806 
	C37.066708,112.183929 38.129078,113.529892 38.624813,114.755211 
	C37.704391,115.535950 36.471138,116.582039 35.048412,117.925240 
	C32.853992,116.812393 30.849051,115.402443 28.832949,113.667595 
z"/>
<path fill="#A9AAAF" opacity="1.000000" stroke="none" 
	d="
M26.142754,112.431427 
	C26.365360,111.577507 26.786945,110.984291 27.208534,110.391075 
	C27.765678,111.097168 28.322823,111.803268 28.837696,112.865997 
	C27.977526,113.045792 27.159632,112.868958 26.142754,112.431427 
z"/>
<path fill="#B4B5BA" opacity="1.000000" stroke="none" 
	d="
M8.900947,93.380386 
	C9.366708,93.642609 9.856473,94.193336 10.087476,94.912476 
	C9.527459,94.610214 9.226205,94.139549 8.900947,93.380386 
z"/>
<path fill="#FBFCFC" opacity="1.000000" stroke="none" 
	d="
M53.330284,99.138489 
	C49.827927,95.198257 46.623882,91.406815 43.249813,87.304398 
	C42.125217,84.220734 41.170650,81.448029 40.027328,78.343094 
	C39.871387,77.844627 39.904202,77.678398 39.937504,77.258026 
	C38.157543,68.828560 42.848129,62.507935 46.135391,55.406578 
	C58.229965,41.204449 73.756737,33.886333 92.150047,30.308018 
	C104.231064,29.355761 115.616478,28.672991 127.426674,28.036795 
	C132.901108,28.721931 137.950745,29.360495 143.376495,30.058731 
	C145.492081,30.441082 147.231537,30.763758 149.202393,31.319046 
	C150.289276,31.700062 151.144791,31.848459 152.326080,32.162754 
	C155.694031,33.344997 158.736206,34.361343 161.986481,35.552494 
	C162.712646,35.873379 163.230759,36.019463 163.986603,36.400940 
	C165.054474,36.934086 165.884628,37.231834 166.967316,37.737724 
	C171.139008,40.977657 175.058167,44.009457 179.136383,47.335072 
	C181.620941,51.126373 183.946472,54.623856 186.272003,58.121330 
	C186.843170,60.167912 187.414352,62.214493 188.128693,64.634628 
	C187.555267,72.751808 186.838699,80.495430 186.025970,88.815872 
	C185.929794,89.392708 185.882965,89.808601 185.632263,89.997437 
	C184.941635,91.126030 184.501709,92.065796 183.860443,93.276459 
	C179.794937,97.434860 175.930786,101.322357 171.919067,104.882408 
	C170.439758,103.223351 169.108002,101.891739 167.776245,100.560135 
	C176.982330,94.643867 181.950867,86.443375 182.512726,75.296799 
	C183.202469,61.613258 177.406235,51.697929 164.030823,46.080490 
	C161.897675,45.904408 160.430893,45.900875 158.617996,45.858833 
	C157.217941,45.527866 156.164001,45.235413 154.919708,44.592812 
	C153.879807,43.870331 153.029953,43.172459 152.180725,43.173206 
	C130.434738,43.192265 108.688843,43.284317 86.619720,43.300922 
	C85.862701,43.291210 85.428879,43.344231 84.744949,43.313686 
	C84.279404,43.469311 84.063980,43.708500 83.646461,44.264931 
	C83.522659,46.065140 83.600960,47.548111 83.535843,49.475311 
	C83.433235,57.638660 83.474037,65.357780 83.379486,73.520317 
	C83.263969,87.347046 83.283806,100.730354 83.303635,114.113663 
	C83.303635,114.113663 83.136314,114.079926 83.082504,114.147858 
	C79.282516,113.124382 75.536346,112.032967 71.443016,110.790665 
	C70.264771,110.117790 69.433678,109.595825 68.032761,108.876755 
	C66.667023,108.372574 65.871124,108.065491 65.075226,107.758408 
	C61.259686,104.934692 57.444141,102.110985 53.330284,99.138489 
z"/>
<path fill="#B2B3B8" opacity="1.000000" stroke="none" 
	d="
M127.001884,27.990221 
	C115.616478,28.672991 104.231064,29.355761 92.433304,30.057224 
	C93.513878,28.727177 95.006256,27.377817 96.499878,26.029827 
	C98.803642,23.950674 101.108246,21.872463 103.149567,19.487194 
	C106.121422,17.470032 109.026115,15.342426 112.091309,13.478784 
	C113.819527,12.428019 115.836891,11.864211 117.680084,10.988598 
	C120.776550,9.517613 123.837975,7.972897 126.942307,6.074924 
	C132.072495,6.445701 137.174515,7.200754 142.582077,8.461941 
	C142.601593,9.919103 142.193298,10.852307 142.051590,11.824375 
	C141.550674,15.260573 132.745682,25.033993 129.359833,26.067539 
	C128.461884,26.341639 127.781929,27.329880 127.001884,27.990221 
z"/>
<path fill="#B2B3B8" opacity="1.000000" stroke="none" 
	d="
M122.170921,4.069151 
	C123.127953,4.192823 124.197220,4.682916 125.405151,5.525788 
	C124.456932,5.397570 123.370049,4.916570 122.170921,4.069151 
z"/>
<path fill="#B2B3B8" opacity="1.000000" stroke="none" 
	d="
M89.741844,27.355673 
	C89.992142,27.370481 90.128609,27.504564 90.265083,27.638645 
	C90.052727,27.584080 89.840370,27.529512 89.741844,27.355673 
z"/>
<path fill="#B2B3B8" opacity="1.000000" stroke="none" 
	d="
M121.467606,6.449718 
	C121.523651,6.416320 121.411560,6.483115 121.467606,6.449718 
z"/>
<path fill="#ACACB1" opacity="1.000000" stroke="none" 
	d="
M127.426674,28.036793 
	C127.781929,27.329880 128.461884,26.341639 129.359833,26.067539 
	C132.745682,25.033993 141.550674,15.260573 142.051590,11.824375 
	C142.193298,10.852307 142.601593,9.919103 142.948761,8.597780 
	C144.007629,8.570560 145.005386,8.913632 145.927872,9.671810 
	C145.082199,13.270873 146.521271,15.348948 149.554626,15.491083 
	C151.035019,15.560450 154.390854,15.649815 152.997131,12.021912 
	C156.197784,13.444547 159.398453,14.867183 162.863220,16.731995 
	C163.404404,17.159855 163.681473,17.145538 163.958557,17.131226 
	C164.883636,17.572531 165.808701,18.013834 166.606079,18.724293 
	C165.986603,20.328012 165.494827,21.662577 165.001526,22.998564 
	C165.000000,22.999987 164.998138,23.002693 164.655151,22.948370 
	C163.361221,21.674801 162.410278,20.455553 160.537933,18.054932 
	C158.628204,21.403214 157.072479,24.130812 155.846100,26.281000 
	C154.330093,28.534185 153.165192,30.265522 152.000305,31.996857 
	C151.144791,31.848459 150.289276,31.700062 149.248047,30.944952 
	C149.069901,28.993616 149.077499,27.648991 149.085083,26.304363 
	C148.211182,26.482758 147.174911,26.425056 146.498322,26.890358 
	C145.222916,27.767471 144.154724,28.945889 143.000397,29.999058 
	C137.950745,29.360495 132.901108,28.721931 127.426674,28.036793 
M134.758148,26.465105 
	C135.149338,26.592739 135.535843,26.741472 135.935684,26.830126 
	C136.015213,26.847757 136.145752,26.635351 136.252762,26.529020 
	C135.861664,26.401527 135.470566,26.274035 134.758148,26.465105 
z"/>
<path fill="#A4A4AA" opacity="1.000000" stroke="none" 
	d="
M163.748856,36.165550 
	C163.230759,36.019463 162.712646,35.873379 162.187561,35.221935 
	C164.034729,33.276001 165.695328,31.368959 167.787079,30.501001 
	C171.170013,29.097275 174.836380,28.376560 178.383057,27.367416 
	C181.303619,30.214252 184.224197,33.061085 187.095444,36.653252 
	C185.364090,39.598949 183.682037,41.799324 181.965286,43.715050 
	C181.625015,43.107712 181.319443,42.785015 181.013885,42.462318 
	C180.831909,42.672359 180.649933,42.882401 180.467957,43.092438 
	C180.978638,43.395042 181.489319,43.697651 181.953247,44.329578 
	C180.930115,45.453014 179.953720,46.247131 178.977325,47.041252 
	C175.058167,44.009457 171.139008,40.977657 167.119217,37.390865 
	C167.070908,35.995739 167.123245,35.155609 167.175598,34.315483 
	C166.033356,34.932175 164.891098,35.548862 163.748856,36.165550 
z"/>
<path fill="#A7A8AD" opacity="1.000000" stroke="none" 
	d="
M178.254395,27.080948 
	C174.836380,28.376560 171.170013,29.097275 167.787079,30.501001 
	C165.695328,31.368959 164.034729,33.276001 161.979492,35.047134 
	C158.736206,34.361343 155.694031,33.344997 152.326080,32.162754 
	C153.165192,30.265522 154.330093,28.534185 155.846100,26.281000 
	C157.072479,24.130812 158.628204,21.403214 160.537933,18.054932 
	C162.410278,20.455553 163.361221,21.674801 164.778076,23.153698 
	C165.594269,23.398132 165.944580,23.382917 166.294876,23.367702 
	C165.864273,23.244184 165.433655,23.120665 165.003052,22.997143 
	C165.494827,21.662577 165.986603,20.328012 166.772400,18.984261 
	C170.752838,21.581543 174.439285,24.188011 178.254395,27.080948 
z"/>
<path fill="#9F9EA4" opacity="1.000000" stroke="none" 
	d="
M182.000000,43.999695 
	C183.682037,41.799324 185.364090,39.598949 187.085022,36.995621 
	C189.074860,38.819824 191.025818,41.046982 193.046875,43.613823 
	C192.641830,43.967838 192.166672,43.982174 191.005829,43.999859 
	C189.880295,44.002289 189.440445,44.001373 189.000610,44.000458 
	C188.456940,44.216560 187.422592,44.546303 187.442413,44.631893 
	C187.799728,46.174564 188.284286,47.687763 188.869873,49.633316 
	C187.265121,49.426620 186.093292,49.275684 184.921463,49.124748 
	C184.781921,49.434345 184.642380,49.743938 184.502838,50.053535 
	C186.146942,50.984104 187.791046,51.914673 190.449951,53.419621 
	C189.377243,54.915974 188.243866,56.496941 186.691254,58.099625 
	C183.946472,54.623856 181.620941,51.126373 179.136383,47.335068 
	C179.953720,46.247131 180.930115,45.453014 181.953247,44.329449 
	C182.000000,44.000000 182.000000,43.999695 182.000000,43.999695 
z"/>
<path fill="#B2B3B8" opacity="1.000000" stroke="none" 
	d="
M152.761993,11.759204 
	C154.390854,15.649815 151.035019,15.560450 149.554626,15.491083 
	C146.521271,15.348948 145.082199,13.270873 146.170685,9.889690 
	C148.501465,10.293809 150.514175,10.895153 152.761993,11.759204 
z"/>
<path fill="#9F9EA4" opacity="1.000000" stroke="none" 
	d="
M197.007919,51.631027 
	C196.417328,53.195950 195.794052,54.416325 194.956085,56.057045 
	C191.220673,53.243248 191.831696,50.264038 194.101044,46.930000 
	C195.285187,48.277031 196.130203,49.781754 197.007919,51.631027 
z"/>
<path fill="#A7A8AD" opacity="1.000000" stroke="none" 
	d="
M163.742188,17.019569 
	C163.681473,17.145538 163.404404,17.159855 163.089905,16.983814 
	C163.052505,16.793457 163.525818,16.907915 163.742188,17.019569 
z"/>
<path fill="#BFC0C5" opacity="1.000000" stroke="none" 
	d="
M69.388885,5.733027 
	C69.979820,5.947948 70.247261,6.198500 70.335663,6.501320 
	C71.243057,9.609455 65.681786,17.470205 62.695751,18.104868 
	C60.136189,18.648891 57.639969,19.891432 55.357410,21.235485 
	C52.589657,22.865240 50.041729,24.880831 47.464672,26.817293 
	C45.884464,28.004696 44.054768,29.106520 42.994732,30.687662 
	C40.883915,33.836143 37.568195,35.482170 35.078159,37.723087 
	C28.922834,43.262589 19.676910,42.261982 14.595724,48.941406 
	C13.768382,50.028980 12.132419,51.082935 12.148119,52.133324 
	C12.232574,57.783298 8.976910,57.432693 4.947600,56.299629 
	C4.253879,57.474354 3.554741,58.658249 2.525214,59.921898 
	C4.401829,47.502659 11.208097,37.597141 20.354809,29.331184 
	C32.768108,18.113190 47.467728,10.952487 63.593304,6.683203 
	C65.345383,6.219335 67.183868,6.081814 69.388885,5.733027 
z"/>
<path fill="#1C61B2" opacity="1.000000" stroke="none" 
	d="
M139.797318,125.971100 
	C142.534134,126.018829 143.666245,125.573746 143.411896,121.988602 
	C143.164566,118.502693 142.309998,113.410133 148.453735,112.468887 
	C149.467590,112.313568 150.184418,110.009766 150.973282,108.660736 
	C151.627548,107.541862 152.185730,106.366821 153.241699,105.564941 
	C157.751770,107.299278 161.806625,108.685333 165.934021,110.405884 
	C167.506012,112.794357 169.005493,114.848343 170.504974,116.902328 
	C172.302139,120.029999 174.099289,123.157669 175.974609,126.626144 
	C175.120865,127.511192 174.090942,128.637161 173.273911,128.499512 
	C169.637146,127.886795 168.834381,129.817719 169.013367,132.758606 
	C169.216171,136.090942 167.520416,137.257843 164.453918,136.996735 
	C160.193649,136.634003 158.273666,138.258057 157.686951,142.819397 
	C157.439163,144.745758 154.056625,146.268890 151.751434,148.202698 
	C151.403885,148.430069 151.414001,148.362747 151.591934,147.967606 
	C151.097015,146.744766 150.424164,145.917053 149.751328,145.089355 
	C146.927963,140.610840 144.104599,136.132309 141.181030,130.960480 
	C140.652985,128.835159 140.225159,127.403130 139.797318,125.971100 
z"/>
<path fill="#919198" opacity="1.000000" stroke="none" 
	d="
M170.719360,116.621956 
	C169.005493,114.848343 167.506012,112.794357 166.118103,110.116180 
	C168.175308,108.064606 170.120972,106.637222 172.066620,105.209854 
	C175.930786,101.322357 179.794937,97.434860 184.183090,93.274719 
	C185.137650,93.000877 185.568207,92.999672 185.998871,93.373131 
	C185.999146,94.497101 185.999329,95.246414 186.104279,96.212631 
	C186.402298,96.702110 186.659012,96.886246 186.989456,97.362640 
	C187.031586,98.250748 187.063431,98.758141 187.095291,99.265541 
	C183.723404,106.864906 177.229172,111.509163 170.719360,116.621956 
z"/>
<path fill="#8F8F94" opacity="1.000000" stroke="none" 
	d="
M187.402802,99.106979 
	C187.063431,98.758141 187.031586,98.250748 186.886932,97.145004 
	C186.578552,96.274994 186.320343,96.091354 185.999512,95.995728 
	C185.999329,95.246414 185.999146,94.497101 186.241150,93.193199 
	C186.283203,91.695274 186.083084,90.751938 185.882965,89.808601 
	C185.882965,89.808601 185.929794,89.392708 186.018707,89.203247 
	C187.218521,89.565819 188.329407,90.117859 188.719452,90.311691 
	C191.525848,87.408798 194.062790,84.784637 196.949860,82.227722 
	C195.939743,88.903534 193.677185,94.992516 187.402802,99.106979 
z"/>
<path fill="#8F8F94" opacity="1.000000" stroke="none" 
	d="
M197.426208,82.169724 
	C197.331818,81.841507 197.560287,81.531075 198.081360,81.148872 
	C198.165680,81.447243 197.957382,81.817375 197.426208,82.169724 
z"/>
<path fill="#93949B" opacity="1.000000" stroke="none" 
	d="
M139.779510,125.840485 
	C140.225159,127.403130 140.652985,128.835159 141.037170,130.643112 
	C133.337631,132.066086 125.681763,133.113144 117.607391,134.224426 
	C117.123215,132.814316 117.057533,131.340012 116.994232,128.986740 
	C116.952843,125.744789 116.909073,123.381783 116.865295,121.018784 
	C116.882843,120.546349 116.900383,120.073906 116.961945,119.232224 
	C117.005959,118.862984 117.197121,118.968727 117.647636,119.009010 
	C123.426804,118.866867 128.755447,118.684433 134.340591,118.616440 
	C135.393646,119.498352 136.190231,120.265846 136.986801,121.033340 
	C137.305511,121.681252 137.624207,122.329163 138.330002,123.365585 
	C139.104538,124.327377 139.491989,124.900665 139.879425,125.473953 
	C139.879425,125.473953 139.761703,125.709862 139.779510,125.840485 
z"/>
<path fill="#1B5FAD" opacity="1.000000" stroke="none" 
	d="
M149.779526,145.407684 
	C150.424164,145.917053 151.097015,146.744766 151.580292,147.935623 
	C150.863052,147.441193 150.335388,146.583588 149.779526,145.407684 
z"/>
<path fill="#0D42A8" opacity="1.000000" stroke="none" 
	d="
M160.528168,154.899689 
	C166.251312,154.560287 172.434387,154.260345 178.619400,154.007278 
	C180.429810,153.933212 182.245697,153.992523 184.527161,153.983551 
	C186.717972,153.678970 188.440720,153.381561 190.537445,153.048187 
	C192.669647,156.059097 189.940994,154.960297 188.941483,154.966293 
	C179.624283,155.022339 170.306473,154.974670 160.528168,154.899689 
z"/>
<path fill="#A4A4AA" opacity="1.000000" stroke="none" 
	d="
M189.038757,44.299011 
	C189.440445,44.001373 189.880295,44.002289 190.649597,44.004589 
	C190.750824,44.523792 190.522598,45.041618 190.294373,45.559441 
	C189.888550,45.238815 189.482727,44.918190 189.038757,44.299011 
z"/>
<path fill="#116AC1" opacity="1.000000" stroke="none" 
	d="
M84.031509,137.477570 
	C84.714890,138.301956 85.684456,139.531479 85.935364,140.893402 
	C86.497742,143.945908 86.317169,147.185150 87.231026,150.100067 
	C87.632019,151.379120 89.925400,152.780746 91.433235,152.869156 
	C97.026764,153.197052 102.652672,152.926483 108.262566,153.052200 
	C109.784065,153.086304 111.292053,153.723648 112.927750,154.464417 
	C105.344810,154.898346 97.640358,154.951950 89.466507,155.021820 
	C85.344650,155.215485 83.529488,153.889755 83.891365,149.830688 
	C84.242119,145.896347 83.982880,141.907639 84.031509,137.477570 
z"/>
<path fill="#2369BD" opacity="1.000000" stroke="none" 
	d="
M158.997864,48.001732 
	C158.973465,56.291553 158.939987,56.487148 150.666611,56.958328 
	C144.567566,57.305679 145.288849,62.034206 144.285522,66.490929 
	C143.919800,67.814919 150.667404,66.133705 145.830750,69.889366 
	C143.761154,69.151764 142.360870,68.477173 140.706329,67.522507 
	C131.954178,66.629448 123.456245,66.016479 114.999664,65.406487 
	C114.999664,72.230820 114.999664,78.587158 114.999664,84.943489 
	C113.832817,91.046516 112.665977,97.149536 111.431259,103.607582 
	C106.637787,103.760109 103.214142,105.701759 103.989487,111.792564 
	C98.983444,112.221359 94.443329,112.610245 89.451195,112.529968 
	C88.998810,91.041206 88.998451,70.021606 89.437607,49.000725 
	C92.582314,48.668137 95.287521,48.336834 98.459328,48.002724 
	C103.619621,48.001717 108.313309,48.003517 113.300613,48.301369 
	C126.170158,48.712246 138.746033,48.839317 151.322235,48.901310 
	C151.879410,48.904057 152.439484,48.313457 152.999115,47.999619 
	C153.000000,48.000000 152.999222,47.997871 153.427948,47.998505 
	C155.570389,48.000000 157.284134,48.000866 158.997864,48.001732 
z"/>
<path fill="#F4F7FA" opacity="1.000000" stroke="none" 
	d="
M140.960571,67.802582 
	C142.360870,68.477173 143.761154,69.151764 145.467636,69.953156 
	C145.963440,70.702759 146.082596,71.358147 146.353271,71.943451 
	C150.209335,80.281662 145.826462,86.715775 135.944580,86.989311 
	C130.294754,87.145714 124.637001,87.015182 118.415436,86.535950 
	C117.813698,81.260216 117.904022,76.457039 117.698967,71.666489 
	C117.572815,68.719002 118.467293,67.497810 121.606834,67.612587 
	C128.051773,67.848213 134.508621,67.758423 140.960571,67.802582 
z"/>
<path fill="#195FB0" opacity="1.000000" stroke="none" 
	d="
M136.988647,120.595123 
	C136.190231,120.265846 135.393646,119.498352 134.373077,118.219772 
	C129.988922,111.136909 125.756989,109.723923 117.197121,112.166367 
	C117.197121,114.394615 117.197121,116.681671 117.197121,118.968727 
	C117.197121,118.968727 117.005959,118.862984 116.898354,118.882645 
	C115.588516,118.002548 114.386284,117.102783 113.184036,116.203018 
	C113.945038,115.759628 114.706039,115.316254 115.071442,115.103363 
	C114.202095,112.555710 113.317360,109.962975 112.409317,107.301926 
	C116.960724,106.808487 120.674286,106.407127 124.387527,106.002907 
	C127.269821,105.689156 129.460327,106.322670 130.836594,109.334175 
	C131.323181,110.398903 133.298080,110.783463 134.593491,111.478561 
	C135.040543,111.174179 135.487595,110.869797 135.934662,110.565414 
	C136.286591,113.762581 136.638535,116.959740 136.988647,120.595123 
M124.517532,108.409775 
	C124.517532,108.409775 124.585350,108.522041 124.517532,108.409775 
z"/>
<path fill="#3B7ECC" opacity="1.000000" stroke="none" 
	d="
M140.706329,67.522507 
	C134.508621,67.758423 128.051773,67.848213 121.606834,67.612587 
	C118.467293,67.497810 117.572815,68.719002 117.698967,71.666489 
	C117.904022,76.457039 117.813698,81.260216 117.950592,86.515182 
	C117.212509,86.236633 116.371887,85.500961 115.265465,84.854385 
	C114.999664,78.587158 114.999664,72.230820 114.999664,65.406487 
	C123.456245,66.016479 131.954178,66.629448 140.706329,67.522507 
z"/>
<path fill="#EAF2F5" opacity="1.000000" stroke="none" 
	d="
M171.919067,104.882401 
	C170.120972,106.637222 168.175308,108.064606 166.045578,109.781693 
	C161.806625,108.685333 157.751770,107.299278 153.646942,105.600067 
	C158.084610,103.785271 162.572250,102.283615 167.418060,100.671051 
	C169.108002,101.891739 170.439758,103.223351 171.919067,104.882401 
z"/>
<path fill="#1B67AB" opacity="1.000000" stroke="none" 
	d="
M83.514839,73.076897 
	C83.474037,65.357780 83.433235,57.638660 83.754105,49.470844 
	C84.407333,49.011250 84.698990,49.007435 84.993034,49.478256 
	C84.999512,70.961296 85.003693,91.976784 85.003494,113.243416 
	C84.998695,113.662025 84.998283,113.829491 84.997864,113.996948 
	C84.997864,113.996948 84.578499,113.997887 84.339752,113.530174 
	C84.089867,108.606827 84.130577,104.150337 84.056648,99.695747 
	C83.909378,90.822243 83.699097,81.949783 83.514839,73.076897 
z"/>
<path fill="#186FB6" opacity="1.000000" stroke="none" 
	d="
M88.998100,49.002010 
	C88.998451,70.021606 88.998810,91.041206 88.997910,112.529182 
	C88.996643,112.997559 88.497803,112.997826 88.159363,112.829170 
	C87.545631,112.773575 87.270325,112.886635 86.995026,112.999695 
	C86.995026,112.999695 87.000000,112.999695 86.749519,112.996674 
	C86.499039,112.993652 86.004272,112.994202 86.003677,112.550995 
	C86.003349,109.740593 86.003616,107.373398 86.401047,104.916138 
	C87.198288,103.162361 87.937485,101.500404 87.946098,99.834679 
	C88.033669,82.889412 88.002190,65.943535 88.002022,48.998760 
	C88.000000,48.999695 87.999634,49.000908 88.249802,49.000473 
	C88.666748,49.000134 88.833527,49.000221 89.000153,49.000153 
	C89.000000,49.000000 88.998100,49.002010 88.998100,49.002010 
z"/>
<path fill="#467CC9" opacity="1.000000" stroke="none" 
	d="
M83.379486,73.520317 
	C83.699097,81.949783 83.909378,90.822243 84.056648,99.695747 
	C84.130577,104.150337 84.089867,108.606827 84.130066,113.530563 
	C84.159134,113.998657 83.735023,114.084229 83.519333,114.098946 
	C83.283806,100.730354 83.263969,87.347046 83.379486,73.520317 
z"/>
<path fill="#2369BD" opacity="1.000000" stroke="none" 
	d="
M86.004272,112.994202 
	C86.004272,112.994202 86.499039,112.993652 86.746346,112.994675 
	C86.993652,118.122482 86.993652,123.249283 86.993652,128.376068 
	C86.329674,128.372498 85.665703,128.368912 85.001724,128.365326 
	C85.001724,123.887138 85.001724,119.408958 84.999794,114.463860 
	C84.998283,113.829491 84.998695,113.662025 85.252541,113.245667 
	C85.505974,112.996765 86.004272,112.994202 86.004272,112.994202 
z"/>
<path fill="#195FB0" opacity="1.000000" stroke="none" 
	d="
M116.471451,121.032425 
	C116.909073,123.381783 116.952843,125.744789 116.946198,128.548309 
	C113.087753,127.550949 112.708473,123.868805 116.471451,121.032425 
z"/>
<path fill="#2169B5" opacity="1.000000" stroke="none" 
	d="
M159.331116,48.001034 
	C157.284134,48.000866 155.570389,48.000000 153.425873,47.750793 
	C152.995087,47.502453 152.989792,47.006992 152.993469,46.699242 
	C153.005005,45.982849 153.012848,45.574211 153.370056,45.138046 
	C154.182953,45.054665 154.646500,44.998810 155.110046,44.942955 
	C156.164001,45.235413 157.217941,45.527866 158.767395,46.117241 
	C159.841034,46.941986 160.419174,47.469807 160.997330,47.997627 
	C160.553009,47.998531 160.108704,47.999435 159.331116,48.001034 
z"/>
<path fill="#2369BD" opacity="1.000000" stroke="none" 
	d="
M161.337723,47.995808 
	C160.419174,47.469807 159.841034,46.941986 159.113495,46.155754 
	C160.430893,45.900875 161.897675,45.904408 163.682724,46.056000 
	C163.226685,46.800705 162.452393,47.397346 161.337723,47.995808 
z"/>
<path fill="#2369BD" opacity="1.000000" stroke="none" 
	d="
M149.741760,65.355652 
	C149.991806,65.370384 150.128159,65.504395 150.264496,65.638412 
	C150.052353,65.583916 149.840225,65.529427 149.741760,65.355652 
z"/>
<path fill="#1C61B2" opacity="1.000000" stroke="none" 
	d="
M139.887817,125.081909 
	C139.491989,124.900665 139.104538,124.327377 138.613708,123.416412 
	C138.972275,123.615776 139.434235,124.152817 139.887817,125.081909 
z"/>
<path fill="#2C66C4" opacity="1.000000" stroke="none" 
	d="
M87.246010,112.999504 
	C87.270325,112.886635 87.545631,112.773575 87.909943,112.829544 
	C87.831642,112.998825 87.664314,112.999069 87.246010,112.999504 
z"/>
<path fill="#9F9FA5" opacity="1.000000" stroke="none" 
	d="
M65.076576,108.108429 
	C65.871124,108.065491 66.667023,108.372574 67.728165,108.862762 
	C67.547806,109.567436 67.102226,110.089005 66.656639,110.610573 
	C66.130402,109.893196 65.604164,109.175819 65.076576,108.108429 
z"/>
<path fill="#A9AAAF" opacity="1.000000" stroke="none" 
	d="
M38.740051,117.355804 
	C38.991096,117.370590 39.127941,117.504807 39.264786,117.639023 
	C39.051807,117.584419 38.838825,117.529823 38.740051,117.355804 
z"/>
<path fill="#9F9FA5" opacity="1.000000" stroke="none" 
	d="
M50.446732,124.532333 
	C50.411865,124.475266 50.481598,124.589394 50.446732,124.532333 
z"/>
<path fill="#B0B1B6" opacity="1.000000" stroke="none" 
	d="
M36.360031,71.896240 
	C36.635754,72.167702 36.749287,72.571152 36.805885,72.982422 
	C36.815643,73.053314 36.583549,73.157494 36.463173,73.246292 
	C36.368309,72.841148 36.273445,72.436005 36.360031,71.896240 
z"/>
<path fill="#B4B5BA" opacity="1.000000" stroke="none" 
	d="
M35.395172,79.954346 
	C35.791256,79.712616 36.185268,79.714333 36.577076,79.744606 
	C36.588123,79.745468 36.575623,80.050995 36.574104,80.214462 
	C36.180336,80.210243 35.786564,80.206024 35.395172,79.954346 
z"/>
<path fill="#467CC9" opacity="1.000000" stroke="none" 
	d="
M154.919708,44.592812 
	C154.646500,44.998810 154.182953,45.054665 152.900787,45.093548 
	C138.995331,45.037514 125.907845,44.928143 112.822479,45.048824 
	C111.195839,45.063824 109.580467,46.299469 107.504974,46.968803 
	C103.710403,46.969227 100.370720,46.970356 96.759659,46.691792 
	C93.659737,45.955128 90.831207,45.498158 87.735458,45.037693 
	C87.290390,45.023762 87.112534,45.013321 86.934464,44.729534 
	C86.937141,44.092014 86.940033,43.727837 86.942924,43.363655 
	C108.688843,43.284317 130.434738,43.192265 152.180725,43.173206 
	C153.029953,43.172459 153.879807,43.870331 154.919708,44.592812 
z"/>
<path fill="#A7A8AD" opacity="1.000000" stroke="none" 
	d="
M143.376495,30.058733 
	C144.154724,28.945889 145.222916,27.767471 146.498322,26.890358 
	C147.174911,26.425056 148.211182,26.482758 149.085083,26.304363 
	C149.077499,27.648991 149.069901,28.993616 149.016663,30.712337 
	C147.231537,30.763758 145.492081,30.441082 143.376495,30.058733 
z"/>
<path fill="#2166B8" opacity="1.000000" stroke="none" 
	d="
M86.619720,43.300926 
	C86.940033,43.727837 86.937141,44.092014 86.581894,44.794144 
	C85.816612,46.424969 85.403671,47.717834 84.990730,49.010700 
	C84.698990,49.007435 84.407333,49.011250 83.897522,49.026611 
	C83.600960,47.548111 83.522659,46.065140 83.872032,44.257530 
	C84.609474,43.855549 84.841263,43.677002 84.995064,43.397251 
	C85.428879,43.344231 85.862701,43.291210 86.619720,43.300926 
z"/>
<path fill="#A7A8AD" opacity="1.000000" stroke="none" 
	d="
M163.986603,36.400944 
	C164.891098,35.548862 166.033356,34.932175 167.175598,34.315483 
	C167.123245,35.155609 167.070908,35.995739 166.866669,37.182728 
	C165.884628,37.231834 165.054474,36.934086 163.986603,36.400944 
z"/>
<path fill="#97969C" opacity="1.000000" stroke="none" 
	d="
M185.632263,89.997437 
	C186.083084,90.751938 186.283203,91.695274 186.241058,92.818542 
	C185.568207,92.999672 185.137650,93.000877 184.384430,93.003822 
	C184.501709,92.065796 184.941635,91.126030 185.632263,89.997437 
z"/>
<path fill="#467CC9" opacity="1.000000" stroke="none" 
	d="
M84.744949,43.313686 
	C84.841263,43.677002 84.609474,43.855549 84.074127,43.940292 
	C84.063980,43.708500 84.279404,43.469311 84.744949,43.313686 
z"/>
<path fill="#B2B3B8" opacity="1.000000" stroke="none" 
	d="
M134.918808,26.305824 
	C135.470566,26.274035 135.861664,26.401527 136.252762,26.529022 
	C136.145752,26.635351 136.015213,26.847757 135.935684,26.830126 
	C135.535843,26.741472 135.149338,26.592739 134.918808,26.305824 
z"/>
<path fill="#9F9EA4" opacity="1.000000" stroke="none" 
	d="
M182.000000,44.000130 
	C181.489319,43.697651 180.978638,43.395042 180.467957,43.092438 
	C180.649933,42.882401 180.831909,42.672359 181.013885,42.462318 
	C181.319443,42.785015 181.625015,43.107712 181.965286,43.715050 
	C182.000000,43.999695 182.000000,44.000000 182.000000,44.000130 
z"/>
<path fill="#ACACB1" opacity="1.000000" stroke="none" 
	d="
M165.001526,22.998566 
	C165.433655,23.120665 165.864273,23.244184 166.294876,23.367702 
	C165.944580,23.382917 165.594269,23.398132 165.121063,23.208019 
	C164.998138,23.002693 165.000000,22.999987 165.001526,22.998566 
z"/>
<path fill="#97969C" opacity="1.000000" stroke="none" 
	d="
M186.104279,96.212631 
	C186.320343,96.091354 186.578552,96.274994 186.876678,96.764290 
	C186.659012,96.886246 186.402298,96.702110 186.104279,96.212631 
z"/>
<path fill="#EDF2F6" opacity="1.000000" stroke="none" 
	d="
M117.647636,119.009010 
	C117.197121,116.681671 117.197121,114.394615 117.197121,112.166367 
	C125.756989,109.723923 129.988922,111.136909 134.116577,118.105347 
	C128.755447,118.684433 123.426804,118.866867 117.647636,119.009010 
z"/>
<path fill="#2166CD" opacity="1.000000" stroke="none" 
	d="
M97.031036,46.971485 
	C100.370720,46.970356 103.710403,46.969227 107.978004,46.979271 
	C123.600548,46.995956 138.295166,47.001472 152.989792,47.006989 
	C152.989792,47.006992 152.995087,47.502453 152.997162,47.750160 
	C152.999222,47.997871 153.000000,48.000000 152.530640,47.999901 
	C139.043182,48.001644 126.025093,48.003483 113.007004,48.005322 
	C108.313309,48.003517 103.619621,48.001717 98.010300,48.001221 
	C94.397125,48.002407 91.699570,48.002289 89.000916,47.752441 
	C88.999817,47.502708 88.997253,47.003517 89.442513,47.001328 
	C92.268860,46.989918 94.649948,46.980701 97.031036,46.971485 
z"/>
<path fill="#2169B5" opacity="1.000000" stroke="none" 
	d="
M113.300613,48.301369 
	C126.025093,48.003483 139.043182,48.001644 152.529755,47.999519 
	C152.439484,48.313457 151.879410,48.904057 151.322235,48.901310 
	C138.746033,48.839317 126.170158,48.712246 113.300613,48.301369 
z"/>
<path fill="#2169B5" opacity="1.000000" stroke="none" 
	d="
M89.002014,48.002174 
	C91.699570,48.002289 94.397125,48.002407 97.543701,48.004028 
	C95.287521,48.336834 92.582314,48.668137 89.437607,49.000725 
	C88.998100,49.002010 89.000000,49.000000 89.000061,48.750610 
	C89.000114,48.501221 89.002014,48.002174 89.002014,48.002174 
z"/>
<path fill="#2166B8" opacity="1.000000" stroke="none" 
	d="
M124.551437,108.465912 
	C124.585350,108.522041 124.517532,108.409775 124.551437,108.465912 
z"/>
<path fill="#1B70C9" opacity="1.000000" stroke="none" 
	d="
M84.993034,49.478256 
	C85.403671,47.717834 85.816612,46.424969 86.582123,45.067490 
	C87.112534,45.013321 87.290390,45.023762 87.735733,45.363396 
	C88.006416,46.127789 88.009621,46.562984 88.006660,47.331573 
	C88.000214,48.110279 87.999924,48.555595 87.999634,49.000908 
	C87.999634,49.000908 88.000000,48.999695 87.603561,49.086868 
	C86.803505,50.835842 86.057426,52.495953 86.049179,54.159718 
	C85.965202,71.108200 86.001358,88.057289 86.003891,105.006203 
	C86.003616,107.373398 86.003349,109.740593 86.003677,112.550995 
	C86.004272,112.994202 85.505974,112.996765 85.256927,112.994514 
	C85.003693,91.976784 84.999512,70.961296 84.993034,49.478256 
z"/>
<path fill="#2C66C4" opacity="1.000000" stroke="none" 
	d="
M86.401047,104.916138 
	C86.001358,88.057289 85.965202,71.108200 86.049179,54.159718 
	C86.057426,52.495953 86.803505,50.835842 87.605576,49.085930 
	C88.002190,65.943535 88.033669,82.889412 87.946098,99.834679 
	C87.937485,101.500404 87.198288,103.162361 86.401047,104.916138 
z"/>
<path fill="#2C66C4" opacity="1.000000" stroke="none" 
	d="
M88.249802,49.000473 
	C87.999924,48.555595 88.000214,48.110279 88.252686,47.332634 
	C88.504875,47.000305 88.997253,47.003517 88.997253,47.003517 
	C88.997253,47.003517 88.999817,47.502708 89.000916,47.752441 
	C89.002014,48.002174 89.000114,48.501221 89.000214,48.750763 
	C88.833527,49.000221 88.666748,49.000134 88.249802,49.000473 
z"/>
<path fill="#266CBA" opacity="1.000000" stroke="none" 
	d="
M152.993469,46.699242 
	C138.295166,47.001472 123.600548,46.995956 108.432892,46.979973 
	C109.580467,46.299469 111.195839,45.063824 112.822479,45.048824 
	C125.907845,44.928143 138.995331,45.037514 152.551422,45.121071 
	C153.012848,45.574211 153.005005,45.982849 152.993469,46.699242 
z"/>
<path fill="#266CBA" opacity="1.000000" stroke="none" 
	d="
M89.442513,47.001328 
	C88.997253,47.003517 88.504875,47.000305 88.258850,46.999241 
	C88.009621,46.562984 88.006416,46.127789 88.002945,45.366890 
	C90.831207,45.498158 93.659737,45.955128 96.759659,46.691792 
	C94.649948,46.980701 92.268860,46.989918 89.442513,47.001328 
z"/>
</svg>